<mxfile host="Electron" modified="2024-09-09T01:13:02.344Z" agent="Mozilla/5.0 (Windows NT 10.0; Win64; x64) AppleWebKit/537.36 (KHTML, like Gecko) draw.io/24.1.0 Chrome/120.0.6099.109 Electron/28.1.0 Safari/537.36" etag="fH0BkxscNEm4hCBb7goM" version="24.1.0" type="device">
  <diagram name="PÃ¡gina-1" id="7denaVx3aKjvv0uCm1Ve">
    <mxGraphModel dx="1114" dy="664" grid="0" gridSize="10" guides="1" tooltips="1" connect="1" arrows="0" fold="1" page="1" pageScale="1" pageWidth="2336" pageHeight="1654" background="#ffffff" math="0" shadow="0">
      <root>
        <mxCell id="0" />
        <mxCell id="1" parent="0" />
        <mxCell id="mzaUCT2slH_RUkw5-Gyk-1" value="Productos" style="swimlane;fontStyle=0;childLayout=stackLayout;horizontal=1;startSize=30;horizontalStack=0;resizeParent=1;resizeParentMax=0;resizeLast=0;collapsible=1;marginBottom=0;whiteSpace=wrap;html=1;" parent="1" vertex="1">
          <mxGeometry x="270" y="250" width="140" height="120" as="geometry" />
        </mxCell>
        <mxCell id="mzaUCT2slH_RUkw5-Gyk-2" value="ID_Producto" style="text;strokeColor=#b85450;fillColor=#f8cecc;align=left;verticalAlign=middle;spacingLeft=4;spacingRight=4;overflow=hidden;points=[[0,0.5],[1,0.5]];portConstraint=eastwest;rotatable=0;whiteSpace=wrap;html=1;" parent="mzaUCT2slH_RUkw5-Gyk-1" vertex="1">
          <mxGeometry y="30" width="140" height="30" as="geometry" />
        </mxCell>
        <mxCell id="mzaUCT2slH_RUkw5-Gyk-3" value="Descripcion" style="text;strokeColor=none;fillColor=none;align=left;verticalAlign=middle;spacingLeft=4;spacingRight=4;overflow=hidden;points=[[0,0.5],[1,0.5]];portConstraint=eastwest;rotatable=0;whiteSpace=wrap;html=1;" parent="mzaUCT2slH_RUkw5-Gyk-1" vertex="1">
          <mxGeometry y="60" width="140" height="30" as="geometry" />
        </mxCell>
        <mxCell id="mzaUCT2slH_RUkw5-Gyk-4" value="Id_categoria" style="text;strokeColor=none;fillColor=none;align=left;verticalAlign=middle;spacingLeft=4;spacingRight=4;overflow=hidden;points=[[0,0.5],[1,0.5]];portConstraint=eastwest;rotatable=0;whiteSpace=wrap;html=1;fontColor=#fb0e0e;" parent="mzaUCT2slH_RUkw5-Gyk-1" vertex="1">
          <mxGeometry y="90" width="140" height="30" as="geometry" />
        </mxCell>
        <mxCell id="mzaUCT2slH_RUkw5-Gyk-5" value="Usuarios" style="swimlane;fontStyle=0;childLayout=stackLayout;horizontal=1;startSize=30;horizontalStack=0;resizeParent=1;resizeParentMax=0;resizeLast=0;collapsible=1;marginBottom=0;whiteSpace=wrap;html=1;" parent="1" vertex="1">
          <mxGeometry x="770" y="160" width="140" height="270" as="geometry" />
        </mxCell>
        <mxCell id="mzaUCT2slH_RUkw5-Gyk-6" value="Id_Usuario" style="text;strokeColor=#b85450;fillColor=#f8cecc;align=left;verticalAlign=middle;spacingLeft=4;spacingRight=4;overflow=hidden;points=[[0,0.5],[1,0.5]];portConstraint=eastwest;rotatable=0;whiteSpace=wrap;html=1;" parent="mzaUCT2slH_RUkw5-Gyk-5" vertex="1">
          <mxGeometry y="30" width="140" height="30" as="geometry" />
        </mxCell>
        <mxCell id="mzaUCT2slH_RUkw5-Gyk-7" value="Usuario" style="text;strokeColor=none;fillColor=none;align=left;verticalAlign=middle;spacingLeft=4;spacingRight=4;overflow=hidden;points=[[0,0.5],[1,0.5]];portConstraint=eastwest;rotatable=0;whiteSpace=wrap;html=1;" parent="mzaUCT2slH_RUkw5-Gyk-5" vertex="1">
          <mxGeometry y="60" width="140" height="30" as="geometry" />
        </mxCell>
        <mxCell id="mzaUCT2slH_RUkw5-Gyk-8" value="Pass" style="text;strokeColor=none;fillColor=none;align=left;verticalAlign=middle;spacingLeft=4;spacingRight=4;overflow=hidden;points=[[0,0.5],[1,0.5]];portConstraint=eastwest;rotatable=0;whiteSpace=wrap;html=1;" parent="mzaUCT2slH_RUkw5-Gyk-5" vertex="1">
          <mxGeometry y="90" width="140" height="30" as="geometry" />
        </mxCell>
        <mxCell id="mzaUCT2slH_RUkw5-Gyk-9" value="Id_Rol" style="text;strokeColor=none;fillColor=none;align=left;verticalAlign=middle;spacingLeft=4;spacingRight=4;overflow=hidden;points=[[0,0.5],[1,0.5]];portConstraint=eastwest;rotatable=0;whiteSpace=wrap;html=1;fontColor=#f20707;" parent="mzaUCT2slH_RUkw5-Gyk-5" vertex="1">
          <mxGeometry y="120" width="140" height="30" as="geometry" />
        </mxCell>
        <mxCell id="zWdDAk3POMTJEBvnD1QE-4" value="Nombre" style="text;strokeColor=none;fillColor=none;align=left;verticalAlign=middle;spacingLeft=4;spacingRight=4;overflow=hidden;points=[[0,0.5],[1,0.5]];portConstraint=eastwest;rotatable=0;whiteSpace=wrap;html=1;" parent="mzaUCT2slH_RUkw5-Gyk-5" vertex="1">
          <mxGeometry y="150" width="140" height="30" as="geometry" />
        </mxCell>
        <mxCell id="Ic-naltqiXrm1fwef9f7-5" value="Apellido" style="text;strokeColor=none;fillColor=none;align=left;verticalAlign=middle;spacingLeft=4;spacingRight=4;overflow=hidden;points=[[0,0.5],[1,0.5]];portConstraint=eastwest;rotatable=0;whiteSpace=wrap;html=1;" parent="mzaUCT2slH_RUkw5-Gyk-5" vertex="1">
          <mxGeometry y="180" width="140" height="30" as="geometry" />
        </mxCell>
        <mxCell id="Ic-naltqiXrm1fwef9f7-6" value="Cuit" style="text;strokeColor=none;fillColor=none;align=left;verticalAlign=middle;spacingLeft=4;spacingRight=4;overflow=hidden;points=[[0,0.5],[1,0.5]];portConstraint=eastwest;rotatable=0;whiteSpace=wrap;html=1;" parent="mzaUCT2slH_RUkw5-Gyk-5" vertex="1">
          <mxGeometry y="210" width="140" height="30" as="geometry" />
        </mxCell>
        <mxCell id="Ic-naltqiXrm1fwef9f7-7" value="Mail" style="text;strokeColor=none;fillColor=none;align=left;verticalAlign=middle;spacingLeft=4;spacingRight=4;overflow=hidden;points=[[0,0.5],[1,0.5]];portConstraint=eastwest;rotatable=0;whiteSpace=wrap;html=1;" parent="mzaUCT2slH_RUkw5-Gyk-5" vertex="1">
          <mxGeometry y="240" width="140" height="30" as="geometry" />
        </mxCell>
        <mxCell id="mzaUCT2slH_RUkw5-Gyk-10" value="Pedidos" style="swimlane;fontStyle=0;childLayout=stackLayout;horizontal=1;startSize=30;horizontalStack=0;resizeParent=1;resizeParentMax=0;resizeLast=0;collapsible=1;marginBottom=0;whiteSpace=wrap;html=1;" parent="1" vertex="1">
          <mxGeometry x="560" y="450" width="140" height="150" as="geometry" />
        </mxCell>
        <mxCell id="mzaUCT2slH_RUkw5-Gyk-11" value="Id_ventas" style="text;strokeColor=#b85450;fillColor=#f8cecc;align=left;verticalAlign=middle;spacingLeft=4;spacingRight=4;overflow=hidden;points=[[0,0.5],[1,0.5]];portConstraint=eastwest;rotatable=0;whiteSpace=wrap;html=1;" parent="mzaUCT2slH_RUkw5-Gyk-10" vertex="1">
          <mxGeometry y="30" width="140" height="30" as="geometry" />
        </mxCell>
        <mxCell id="mzaUCT2slH_RUkw5-Gyk-12" value="Fecha" style="text;strokeColor=none;fillColor=none;align=left;verticalAlign=middle;spacingLeft=4;spacingRight=4;overflow=hidden;points=[[0,0.5],[1,0.5]];portConstraint=eastwest;rotatable=0;whiteSpace=wrap;html=1;" parent="mzaUCT2slH_RUkw5-Gyk-10" vertex="1">
          <mxGeometry y="60" width="140" height="30" as="geometry" />
        </mxCell>
        <mxCell id="mzaUCT2slH_RUkw5-Gyk-13" value="Id_producto" style="text;strokeColor=none;fillColor=none;align=left;verticalAlign=middle;spacingLeft=4;spacingRight=4;overflow=hidden;points=[[0,0.5],[1,0.5]];portConstraint=eastwest;rotatable=0;whiteSpace=wrap;html=1;fontColor=#fb0e0e;" parent="mzaUCT2slH_RUkw5-Gyk-10" vertex="1">
          <mxGeometry y="90" width="140" height="30" as="geometry" />
        </mxCell>
        <mxCell id="mzaUCT2slH_RUkw5-Gyk-14" value="Id_Cliente" style="text;strokeColor=none;fillColor=none;align=left;verticalAlign=middle;spacingLeft=4;spacingRight=4;overflow=hidden;points=[[0,0.5],[1,0.5]];portConstraint=eastwest;rotatable=0;whiteSpace=wrap;html=1;fontColor=#f40b0b;" parent="mzaUCT2slH_RUkw5-Gyk-10" vertex="1">
          <mxGeometry y="120" width="140" height="30" as="geometry" />
        </mxCell>
        <mxCell id="mzaUCT2slH_RUkw5-Gyk-15" value="Inventario (stock)" style="swimlane;fontStyle=0;childLayout=stackLayout;horizontal=1;startSize=30;horizontalStack=0;resizeParent=1;resizeParentMax=0;resizeLast=0;collapsible=1;marginBottom=0;whiteSpace=wrap;html=1;" parent="1" vertex="1">
          <mxGeometry x="220" y="60" width="140" height="150" as="geometry" />
        </mxCell>
        <mxCell id="mzaUCT2slH_RUkw5-Gyk-16" value="Id_Inventario" style="text;strokeColor=#b85450;fillColor=#f8cecc;align=left;verticalAlign=middle;spacingLeft=4;spacingRight=4;overflow=hidden;points=[[0,0.5],[1,0.5]];portConstraint=eastwest;rotatable=0;whiteSpace=wrap;html=1;" parent="mzaUCT2slH_RUkw5-Gyk-15" vertex="1">
          <mxGeometry y="30" width="140" height="30" as="geometry" />
        </mxCell>
        <mxCell id="mzaUCT2slH_RUkw5-Gyk-17" value="Id_proveedor" style="text;strokeColor=none;fillColor=none;align=left;verticalAlign=middle;spacingLeft=4;spacingRight=4;overflow=hidden;points=[[0,0.5],[1,0.5]];portConstraint=eastwest;rotatable=0;whiteSpace=wrap;html=1;fontColor=#ed0707;" parent="mzaUCT2slH_RUkw5-Gyk-15" vertex="1">
          <mxGeometry y="60" width="140" height="30" as="geometry" />
        </mxCell>
        <mxCell id="mzaUCT2slH_RUkw5-Gyk-18" value="Cantidad" style="text;strokeColor=none;fillColor=none;align=left;verticalAlign=middle;spacingLeft=4;spacingRight=4;overflow=hidden;points=[[0,0.5],[1,0.5]];portConstraint=eastwest;rotatable=0;whiteSpace=wrap;html=1;" parent="mzaUCT2slH_RUkw5-Gyk-15" vertex="1">
          <mxGeometry y="90" width="140" height="30" as="geometry" />
        </mxCell>
        <mxCell id="mzaUCT2slH_RUkw5-Gyk-38" value="Id_Producto" style="text;strokeColor=none;fillColor=none;align=left;verticalAlign=middle;spacingLeft=4;spacingRight=4;overflow=hidden;points=[[0,0.5],[1,0.5]];portConstraint=eastwest;rotatable=0;whiteSpace=wrap;html=1;fontColor=#f40b0b;" parent="mzaUCT2slH_RUkw5-Gyk-15" vertex="1">
          <mxGeometry y="120" width="140" height="30" as="geometry" />
        </mxCell>
        <mxCell id="mzaUCT2slH_RUkw5-Gyk-19" value="Proveedor" style="swimlane;fontStyle=0;childLayout=stackLayout;horizontal=1;startSize=30;horizontalStack=0;resizeParent=1;resizeParentMax=0;resizeLast=0;collapsible=1;marginBottom=0;whiteSpace=wrap;html=1;" parent="1" vertex="1">
          <mxGeometry x="560" y="120" width="140" height="150" as="geometry" />
        </mxCell>
        <mxCell id="mzaUCT2slH_RUkw5-Gyk-20" value="Id_proveedor" style="text;strokeColor=#b85450;fillColor=#f8cecc;align=left;verticalAlign=middle;spacingLeft=4;spacingRight=4;overflow=hidden;points=[[0,0.5],[1,0.5]];portConstraint=eastwest;rotatable=0;whiteSpace=wrap;html=1;" parent="mzaUCT2slH_RUkw5-Gyk-19" vertex="1">
          <mxGeometry y="30" width="140" height="30" as="geometry" />
        </mxCell>
        <mxCell id="mzaUCT2slH_RUkw5-Gyk-21" value="Id_producto" style="text;strokeColor=none;fillColor=none;align=left;verticalAlign=middle;spacingLeft=4;spacingRight=4;overflow=hidden;points=[[0,0.5],[1,0.5]];portConstraint=eastwest;rotatable=0;whiteSpace=wrap;html=1;fontColor=#ed0c0c;" parent="mzaUCT2slH_RUkw5-Gyk-19" vertex="1">
          <mxGeometry y="60" width="140" height="30" as="geometry" />
        </mxCell>
        <mxCell id="mzaUCT2slH_RUkw5-Gyk-22" value="Cuit" style="text;strokeColor=none;fillColor=none;align=left;verticalAlign=middle;spacingLeft=4;spacingRight=4;overflow=hidden;points=[[0,0.5],[1,0.5]];portConstraint=eastwest;rotatable=0;whiteSpace=wrap;html=1;" parent="mzaUCT2slH_RUkw5-Gyk-19" vertex="1">
          <mxGeometry y="90" width="140" height="30" as="geometry" />
        </mxCell>
        <mxCell id="Ic-naltqiXrm1fwef9f7-8" value="Telefono" style="text;strokeColor=none;fillColor=none;align=left;verticalAlign=middle;spacingLeft=4;spacingRight=4;overflow=hidden;points=[[0,0.5],[1,0.5]];portConstraint=eastwest;rotatable=0;whiteSpace=wrap;html=1;" parent="mzaUCT2slH_RUkw5-Gyk-19" vertex="1">
          <mxGeometry y="120" width="140" height="30" as="geometry" />
        </mxCell>
        <mxCell id="mzaUCT2slH_RUkw5-Gyk-23" value="Categorias" style="swimlane;fontStyle=0;childLayout=stackLayout;horizontal=1;startSize=30;horizontalStack=0;resizeParent=1;resizeParentMax=0;resizeLast=0;collapsible=1;marginBottom=0;whiteSpace=wrap;html=1;" parent="1" vertex="1">
          <mxGeometry x="80" y="490" width="140" height="90" as="geometry" />
        </mxCell>
        <mxCell id="mzaUCT2slH_RUkw5-Gyk-24" value="Id_categoria" style="text;strokeColor=#b85450;fillColor=#f8cecc;align=left;verticalAlign=middle;spacingLeft=4;spacingRight=4;overflow=hidden;points=[[0,0.5],[1,0.5]];portConstraint=eastwest;rotatable=0;whiteSpace=wrap;html=1;" parent="mzaUCT2slH_RUkw5-Gyk-23" vertex="1">
          <mxGeometry y="30" width="140" height="30" as="geometry" />
        </mxCell>
        <mxCell id="mzaUCT2slH_RUkw5-Gyk-25" value="Descripcion" style="text;strokeColor=none;fillColor=none;align=left;verticalAlign=middle;spacingLeft=4;spacingRight=4;overflow=hidden;points=[[0,0.5],[1,0.5]];portConstraint=eastwest;rotatable=0;whiteSpace=wrap;html=1;" parent="mzaUCT2slH_RUkw5-Gyk-23" vertex="1">
          <mxGeometry y="60" width="140" height="30" as="geometry" />
        </mxCell>
        <mxCell id="mzaUCT2slH_RUkw5-Gyk-27" value="1:N" style="edgeStyle=orthogonalEdgeStyle;rounded=0;orthogonalLoop=1;jettySize=auto;html=1;" parent="1" source="mzaUCT2slH_RUkw5-Gyk-2" target="mzaUCT2slH_RUkw5-Gyk-13" edge="1">
          <mxGeometry relative="1" as="geometry" />
        </mxCell>
        <mxCell id="mzaUCT2slH_RUkw5-Gyk-29" value="1:N" style="edgeStyle=orthogonalEdgeStyle;rounded=0;orthogonalLoop=1;jettySize=auto;html=1;exitX=0;exitY=0.5;exitDx=0;exitDy=0;" parent="1" source="mzaUCT2slH_RUkw5-Gyk-6" target="mzaUCT2slH_RUkw5-Gyk-14" edge="1">
          <mxGeometry relative="1" as="geometry" />
        </mxCell>
        <mxCell id="mzaUCT2slH_RUkw5-Gyk-32" value="1:N" style="edgeStyle=orthogonalEdgeStyle;rounded=0;orthogonalLoop=1;jettySize=auto;html=1;exitX=1;exitY=0.5;exitDx=0;exitDy=0;entryX=0;entryY=0.5;entryDx=0;entryDy=0;" parent="1" source="mzaUCT2slH_RUkw5-Gyk-24" target="mzaUCT2slH_RUkw5-Gyk-4" edge="1">
          <mxGeometry relative="1" as="geometry" />
        </mxCell>
        <mxCell id="mzaUCT2slH_RUkw5-Gyk-33" value="N:1" style="edgeStyle=orthogonalEdgeStyle;rounded=0;orthogonalLoop=1;jettySize=auto;html=1;exitX=0;exitY=0.5;exitDx=0;exitDy=0;" parent="1" source="mzaUCT2slH_RUkw5-Gyk-20" target="mzaUCT2slH_RUkw5-Gyk-17" edge="1">
          <mxGeometry relative="1" as="geometry" />
        </mxCell>
        <mxCell id="mzaUCT2slH_RUkw5-Gyk-35" value="N:1" style="edgeStyle=orthogonalEdgeStyle;rounded=0;orthogonalLoop=1;jettySize=auto;html=1;exitX=0;exitY=0.5;exitDx=0;exitDy=0;entryX=0;entryY=0.5;entryDx=0;entryDy=0;" parent="1" source="mzaUCT2slH_RUkw5-Gyk-2" target="mzaUCT2slH_RUkw5-Gyk-38" edge="1">
          <mxGeometry relative="1" as="geometry" />
        </mxCell>
        <mxCell id="mzaUCT2slH_RUkw5-Gyk-37" value="1:N" style="edgeStyle=orthogonalEdgeStyle;rounded=0;orthogonalLoop=1;jettySize=auto;html=1;exitX=1;exitY=0.5;exitDx=0;exitDy=0;entryX=0;entryY=0.5;entryDx=0;entryDy=0;" parent="1" source="mzaUCT2slH_RUkw5-Gyk-2" target="mzaUCT2slH_RUkw5-Gyk-21" edge="1">
          <mxGeometry relative="1" as="geometry" />
        </mxCell>
        <mxCell id="zWdDAk3POMTJEBvnD1QE-2" value="&lt;h1 style=&quot;margin-top: 0px;&quot;&gt;Usuarios&lt;/h1&gt;&lt;div&gt;tabla que contiene datos de los usuarios de la aplicacion.&lt;/div&gt;&lt;div&gt;Los campos mas relevantes son: Usuario, Pass y Rol.&lt;/div&gt;&lt;div&gt;El rol determina los permisos del usuario (Vendedor - Cliente).&lt;/div&gt;" style="text;html=1;whiteSpace=wrap;overflow=hidden;rounded=0;" parent="1" vertex="1">
          <mxGeometry x="940" y="100" width="180" height="170" as="geometry" />
        </mxCell>
        <mxCell id="zWdDAk3POMTJEBvnD1QE-3" value="&lt;h1 style=&quot;margin-top: 0px;&quot;&gt;Pedidos&lt;/h1&gt;&lt;div&gt;Tabla que registra las ventas efectuadas por cada cliente.&lt;/div&gt;&lt;div&gt;Esta es una tabla central de nuestro modelo.&lt;/div&gt;" style="text;html=1;whiteSpace=wrap;overflow=hidden;rounded=0;" parent="1" vertex="1">
          <mxGeometry x="780" y="510" width="180" height="120" as="geometry" />
        </mxCell>
        <mxCell id="Ic-naltqiXrm1fwef9f7-1" value="&lt;h1 style=&quot;margin-top: 0px;&quot;&gt;Proveedor&lt;/h1&gt;&lt;p&gt;Tabla que contiene los datos y productos comercializados por cada proveedor.&lt;/p&gt;" style="text;html=1;whiteSpace=wrap;overflow=hidden;rounded=0;" parent="1" vertex="1">
          <mxGeometry x="710" y="25" width="180" height="120" as="geometry" />
        </mxCell>
        <mxCell id="Ic-naltqiXrm1fwef9f7-2" value="&lt;h1 style=&quot;margin-top: 0px;&quot;&gt;Inventario&lt;/h1&gt;&lt;div&gt;tabla que contiene los disponibles para comercializar.&lt;/div&gt;" style="text;html=1;whiteSpace=wrap;overflow=hidden;rounded=0;" parent="1" vertex="1">
          <mxGeometry x="40" y="10" width="180" height="120" as="geometry" />
        </mxCell>
        <mxCell id="Ic-naltqiXrm1fwef9f7-3" value="&lt;h1 style=&quot;margin-top: 0px;&quot;&gt;Categoria&lt;/h1&gt;&lt;div&gt;Tabla que contiene los distintos tipos de productos que se comercializan&lt;/div&gt;" style="text;html=1;whiteSpace=wrap;overflow=hidden;rounded=0;" parent="1" vertex="1">
          <mxGeometry x="10" y="380" width="180" height="110" as="geometry" />
        </mxCell>
        <mxCell id="Ic-naltqiXrm1fwef9f7-4" value="&lt;h1 style=&quot;margin-top: 0px;&quot;&gt;Producto&lt;/h1&gt;&lt;div&gt;tabla que contiene los productos que vende la compaÃ±ia.&lt;/div&gt;" style="text;html=1;whiteSpace=wrap;overflow=hidden;rounded=0;" parent="1" vertex="1">
          <mxGeometry x="290" y="380" width="180" height="120" as="geometry" />
        </mxCell>
        <mxCell id="Ic-naltqiXrm1fwef9f7-10" value="Rol" style="swimlane;fontStyle=0;childLayout=stackLayout;horizontal=1;startSize=30;horizontalStack=0;resizeParent=1;resizeParentMax=0;resizeLast=0;collapsible=1;marginBottom=0;whiteSpace=wrap;html=1;" parent="1" vertex="1">
          <mxGeometry x="970" y="360" width="140" height="90" as="geometry" />
        </mxCell>
        <mxCell id="Ic-naltqiXrm1fwef9f7-11" value="Id_Rol" style="text;strokeColor=#b85450;fillColor=#f8cecc;align=left;verticalAlign=middle;spacingLeft=4;spacingRight=4;overflow=hidden;points=[[0,0.5],[1,0.5]];portConstraint=eastwest;rotatable=0;whiteSpace=wrap;html=1;" parent="Ic-naltqiXrm1fwef9f7-10" vertex="1">
          <mxGeometry y="30" width="140" height="30" as="geometry" />
        </mxCell>
        <mxCell id="Ic-naltqiXrm1fwef9f7-12" value="Descripcion" style="text;strokeColor=none;fillColor=none;align=left;verticalAlign=middle;spacingLeft=4;spacingRight=4;overflow=hidden;points=[[0,0.5],[1,0.5]];portConstraint=eastwest;rotatable=0;whiteSpace=wrap;html=1;" parent="Ic-naltqiXrm1fwef9f7-10" vertex="1">
          <mxGeometry y="60" width="140" height="30" as="geometry" />
        </mxCell>
        <mxCell id="Ic-naltqiXrm1fwef9f7-14" value="N:1" style="edgeStyle=orthogonalEdgeStyle;rounded=0;orthogonalLoop=1;jettySize=auto;html=1;entryX=1;entryY=0.5;entryDx=0;entryDy=0;" parent="1" source="Ic-naltqiXrm1fwef9f7-11" target="mzaUCT2slH_RUkw5-Gyk-9" edge="1">
          <mxGeometry relative="1" as="geometry" />
        </mxCell>
        <mxCell id="Ic-naltqiXrm1fwef9f7-15" value="&lt;h1 style=&quot;margin-top: 0px;&quot;&gt;Rol&lt;/h1&gt;&lt;div&gt;Tabla para administrar los perfiles de usuarios de nuestra aplicacion.&lt;/div&gt;" style="text;html=1;whiteSpace=wrap;overflow=hidden;rounded=0;" parent="1" vertex="1">
          <mxGeometry x="1060" y="465" width="180" height="120" as="geometry" />
        </mxCell>
      </root>
    </mxGraphModel>
  </diagram>
</mxfile>
